<?xml version="1.0" encoding="UTF-8" ?>
<!DOCTYPE svg PUBLIC "-//W3C//DTD SVG 1.1//EN" "http://www.w3.org/Graphics/SVG/1.1/DTD/svg11.dtd">
<svg width="23pt" height="18pt" viewBox="0 0 23 18" version="1.1" xmlns="http://www.w3.org/2000/svg">
<g id="#e09212e2">
<path fill="#e09212" opacity="0.89" d=" M 0.00 0.00 L 5.58 0.00 C 4.61 0.65 3.65 1.32 2.69 2.00 C 2.02 2.00 0.67 2.00 0.00 2.01 L 0.00 0.00 Z" />
</g>
<g id="#e16819ea">
<path fill="#e16819" opacity="0.92" d=" M 3.85 3.76 C 4.33 2.96 4.80 2.16 5.28 1.35 C 6.51 4.74 7.76 8.12 9.09 11.47 C 12.06 11.47 15.02 11.53 17.98 11.62 L 16.80 13.48 C 13.68 13.64 10.56 13.52 7.45 13.25 C 6.26 10.09 5.08 6.92 3.85 3.76 Z" />
</g>
<g id="#d05519d9">
<path fill="#d05519" opacity="0.85" d=" M 7.16 2.92 C 10.14 2.73 13.12 2.66 16.11 2.73 C 17.59 3.44 19.06 4.17 20.54 4.88 C 16.59 4.80 12.59 5.24 8.69 4.58 C 8.31 4.17 7.54 3.33 7.16 2.92 Z" />
</g>
<g id="#e68914ea">
<path fill="#e68914" opacity="0.92" d=" M 16.11 2.73 C 17.97 2.75 19.84 2.72 21.71 2.78 C 22.03 3.21 22.68 4.06 23.00 4.49 L 23.00 4.61 C 21.96 7.46 21.03 10.35 20.03 13.22 C 19.23 13.28 17.61 13.42 16.80 13.48 L 17.98 11.62 C 18.10 11.41 18.35 11.00 18.47 10.79 C 19.30 8.87 19.91 6.87 20.54 4.88 C 19.06 4.17 17.59 3.44 16.11 2.73 Z" />
</g>
<g id="#c54e18cf">
<path fill="#c54e18" opacity="0.81" d=" M 8.16 18.00 C 7.46 16.81 8.12 14.68 9.74 14.88 C 11.28 15.33 10.80 17.32 9.73 18.00 L 8.16 18.00 Z" />
</g>
<g id="#f17e19f7">
<path fill="#f17e19" opacity="0.97" d=" M 17.25 18.00 C 16.36 16.61 16.59 15.58 17.96 14.94 C 19.29 15.57 19.58 16.59 18.81 18.00 L 17.25 18.00 Z" />
</g>
</svg>
