<svg xmlns="http://www.w3.org/2000/svg" width="60" height="60" viewBox="0 0 60 60"><defs><clipPath id="ti6ha"><path fill="#fff" d="M0 30C0 13.431 13.431 0 30 0c16.569 0 30 13.431 30 30 0 16.569-13.431 30-30 30C13.431 60 0 46.569 0 30z"/></clipPath></defs><g><g><path fill="#dfedfc" d="M0 30C0 13.431 13.431 0 30 0c16.569 0 30 13.431 30 30 0 16.569-13.431 30-30 30C13.431 60 0 46.569 0 30z"/><path fill="none" stroke="#fff" stroke-miterlimit="20" stroke-width="4" d="M0 30C0 13.431 13.431 0 30 0v0c16.569 0 30 13.431 30 30v0c0 16.569-13.431 30-30 30v0C13.431 60 0 46.569 0 30z" clip-path="url(&quot;#ti6ha&quot;)"/></g><g><path fill="#5ea4f2" d="M18.67 34.174a1.17 1.17 0 0 0-1.17-1.169 1.5 1.5 0 0 1-1.5-1.499c0-.531.281-1.013.756-1.29.023-.011.046-.03.068-.045.209-.107.441-.164.676-.164h1.71a2.5 2.5 0 0 0 2.374-1.711l.767-2.304c2.686-.061 11.012-.436 15.699-2.778a1.166 1.166 0 1 0-1.045-2.087c-5.029 2.512-15.395 2.543-15.497 2.543-.505 0-.95.322-1.109.797l-1.033 3.089a.164.164 0 0 1-.156.114H17.5c-.053 0-.11.004-.167.007v-5.506c0-4.505 3.67-8.171 8.178-8.171h10.682a2.818 2.818 0 0 1 2.788 2.391c.053.349.269.656.577.831 1.322.744 2.139 2.129 2.139 3.613v8.372c0 .417.224.8.581 1.009.475.277.756.759.756 1.29a1.5 1.5 0 0 1-1.501 1.499 1.17 1.17 0 0 0-1.17 1.169c0 5.974-4.866 10.835-10.848 10.835-5.979 0-10.845-4.861-10.845-10.835zm14.252 3.093a1.171 1.171 0 0 0-1.645.175c-.471.58-1.097.899-1.762.899-.661 0-1.288-.319-1.763-.899a1.165 1.165 0 1 0-1.811 1.469c.907 1.123 2.214 1.764 3.574 1.764 1.364 0 2.666-.641 3.578-1.764a1.168 1.168 0 0 0-.171-1.644zm3.103-4.429v-1.332a1.169 1.169 0 0 0-2.336 0v1.332a1.167 1.167 0 1 0 2.336 0zm-10.681-1.332a1.168 1.168 0 0 0-2.336 0v1.332a1.169 1.169 0 0 0 2.336 0z"/></g></g></svg>