<svg xmlns="http://www.w3.org/2000/svg" width="29" height="34" viewBox="0 0 29 34"><g><g><path fill="#5ea4f2" d="M20.889 32.184A12.836 12.836 0 0 0 27.446 21c0-6.44-4.692-7.367-9.227-8.26-2.883-.57-5.87-1.16-8.246-3.046a1.148 1.148 0 0 0-1.741.378c-.023.044-2.391 4.58-5.528 4.58-.529 0-1.033.108-1.491.308a95.06 95.06 0 0 0 .018-1.771C1.231 5.914 7.183 0 14.501 0 21.818 0 27.77 5.914 27.77 13.189c0 7.648.929 15.382 1.231 17.698-1.041.671-3.696 2.15-8.112 3.113zM3.849 21c0-.63-.511-1.137-1.145-1.137-.813 0-1.473-.66-1.473-1.468 0-.808.66-1.464 1.473-1.464 3.357 0 5.792-2.994 6.907-4.698 2.581 1.641 5.527 2.223 8.161 2.742 4.848.956 7.376 1.66 7.376 6.025 0 5.815-4.732 10.584-10.647 10.584-2.465 0-4.778-.812-6.691-2.35A10.539 10.539 0 0 1 3.849 21zm14.747-1.3c0 .63.514 1.137 1.148 1.137.634 0 1.149-.507 1.149-1.137v-1.305c0-.626-.515-1.137-1.149-1.137s-1.148.511-1.148 1.137zm-7.608 5.925c.895 1.097 2.174 1.727 3.513 1.727s2.618-.63 3.513-1.727a1.133 1.133 0 0 0-.168-1.601 1.154 1.154 0 0 0-1.615.167c-.462.567-1.078.882-1.73.882-.653 0-1.268-.315-1.731-.882a1.154 1.154 0 0 0-1.615-.167 1.133 1.133 0 0 0-.167 1.601zM8.112 19.7c0 .63.511 1.137 1.145 1.137s1.149-.507 1.149-1.137v-1.305c0-.626-.515-1.137-1.149-1.137s-1.145.511-1.145 1.137zm0 14.296C3.693 33.037 1.037 31.554 0 30.887c.187-1.43.612-4.932.911-9.201.216.118.443.215.682.289a12.843 12.843 0 0 0 6.519 10.209z"/></g></g></svg>