<svg xmlns="http://www.w3.org/2000/svg" width="20" height="20" viewBox="0 0 20 20"><g><g><path fill="#fff" d="M10 13.33a3.323 3.323 0 1 1 2.36-.976 3.2 3.2 0 0 1-2.36.976zm0-8.461a5.116 5.116 0 1 0 3.63 1.5 4.95 4.95 0 0 0-3.63-1.5zm5.34-1.406a1.2 1.2 0 1 0 0 2.4 1.2 1.2 0 0 0 0-2.4zM12.37 1.79c.31.005.73.018 1.26.039.449.014.897.058 1.34.13.317.051.628.132.93.241a3.4 3.4 0 0 1 1.14.755c.33.325.589.715.76 1.146.104.304.184.615.24.931.07.444.114.892.13 1.341.02.525.03.944.04 1.256v1.368c-.01.6-.01.935-.01 1 0 .065 0 .393.01 1v1.37c-.01.313-.02.731-.04 1.256-.016.45-.06.897-.13 1.341a6.28 6.28 0 0 1-.24.931c-.171.43-.43.82-.76 1.145a3.393 3.393 0 0 1-1.14.755c-.302.11-.613.19-.93.241-.443.072-.891.116-1.34.13a47.36 47.36 0 0 1-1.26.039H11l-1-.006-.99.006c-.61.005-1.07.005-1.38 0-.31 0-.73-.017-1.25-.039-.45-.013-.897-.057-1.34-.13a5.52 5.52 0 0 1-.94-.241 3.393 3.393 0 0 1-1.14-.755 3.48 3.48 0 0 1-.76-1.145 6.293 6.293 0 0 1-.24-.931c-.07-.444-.114-.892-.13-1.341-.02-.525-.03-.944-.04-1.256v-1.37c.01-.6.01-.935.01-1 0-.065 0-.392-.01-1V7.628c.01-.312.02-.731.04-1.256.016-.45.06-.897.13-1.341A6.3 6.3 0 0 1 2.2 4.1c.175-.429.433-.818.76-1.146a3.4 3.4 0 0 1 1.14-.755 5.51 5.51 0 0 1 .94-.241c.443-.073.89-.117 1.34-.13.52-.021.94-.035 1.25-.039.31-.004.77 0 1.38 0l.99.008 1-.007c.6-.004 1.06-.004 1.37 0zm7.56 4.081a5.53 5.53 0 0 0-5.8-5.806C13.36.022 11.99 0 10 0 8.01 0 6.64.022 5.87.065a5.53 5.53 0 0 0-5.8 5.806C.03 6.635 0 8.01 0 9.997c0 1.987.03 3.363.07 4.127a5.53 5.53 0 0 0 5.8 5.806c.77.043 2.14.065 4.13.065 1.99 0 3.36-.022 4.13-.065a5.529 5.529 0 0 0 5.8-5.806c.05-.763.07-2.139.07-4.127s-.02-3.363-.07-4.126z"/></g></g></svg>