<svg xmlns="http://www.w3.org/2000/svg" width="32" height="42" viewBox="0 0 32 42"><g><g><path fill="#d0d0d9" d="M29.925 34.228a.853.853 0 0 0-.853.851v.97c0 3.281-2.684 5.951-5.981 5.951-3.298 0-5.979-2.67-5.979-5.951v-.97a.853.853 0 0 0-.855-.851h-.975c-.606 0-1.1-.489-1.1-1.092 0-.387.205-.738.552-.94a.774.774 0 0 0 .203-.165c2.111-.061 8.959-.457 13.46-3.013a.85.85 0 0 0 .319-1.161.859.859 0 0 0-1.167-.318c-3.942 2.242-10.137 2.692-12.39 2.781v-.1c0-1.244.298-2.457.851-3.546 2.139-.481 4.503-1.288 6.347-2.479l.734-.473-.039-.301.039-.019 5.475 2.722a.855.855 0 0 0 1.106-.307 7.87 7.87 0 0 1 1.353 4.403v1.241c0 .304.161.583.425.735.344.202.55.553.55.94 0 .603-.492 1.092-1.098 1.092zm-9.749-.968a.85.85 0 1 0 0 1.7.85.85 0 0 0 .856-.848.854.854 0 0 0-.856-.852zm4.204 4.196c-.345.426-.803.658-1.289.658-.487 0-.942-.232-1.289-.658a.856.856 0 0 0-1.201-.124.847.847 0 0 0-.127 1.196c.666.819 1.622 1.286 2.617 1.286.997 0 1.95-.467 2.616-1.286a.847.847 0 0 0-.124-1.196.858.858 0 0 0-1.203.124zm1.608-4.196a.849.849 0 1 0 0 1.7.851.851 0 0 0 .856-.848.855.855 0 0 0-.856-.852zm2.106-12.349v3.077l-3.092-1.537zm-12.535 3.093a9.574 9.574 0 0 0 4.884-8.341c0-4.804-3.495-5.495-6.873-6.161-2.147-.426-4.372-.865-6.142-2.272a.855.855 0 0 0-1.297.282c-.017.033-1.781 3.416-4.117 3.416-.395 0-.77.081-1.111.23.008-.44.014-.882.014-1.321C.917 4.411 5.35 0 10.801 0c5.45 0 9.884 4.411 9.884 9.837 0 5.704.692 11.473.917 13.2-.775.5-2.753 1.603-6.043 2.322zM2.867 15.663a.85.85 0 0 0-.853-.849A1.097 1.097 0 0 1 .917 13.72c0-.603.491-1.092 1.097-1.092 2.5 0 4.314-2.233 5.145-3.505 1.922 1.225 4.117 1.659 6.078 2.046 3.611.713 5.495 1.238 5.495 4.494 0 4.336-3.525 7.894-7.931 7.894a7.865 7.865 0 0 1-4.984-1.753 7.865 7.865 0 0 1-2.95-6.141zm10.984-.97c0 .47.383.848.856.848a.85.85 0 0 0 .855-.848v-.973a.853.853 0 0 0-.855-.849.854.854 0 0 0-.856.849zm-5.667 4.419c.667.818 1.619 1.288 2.617 1.288.997 0 1.95-.47 2.617-1.288a.846.846 0 0 0-.125-1.194.858.858 0 0 0-1.203.125c-.345.423-.803.657-1.289.657-.486 0-.945-.234-1.289-.657a.858.858 0 0 0-1.203-.125.845.845 0 0 0-.125 1.194zm-2.142-4.419c0 .47.381.848.853.848a.851.851 0 0 0 .856-.848v-.973a.854.854 0 0 0-1.709 0zm0 10.663C2.75 24.64.772 23.534 0 23.037c.139-1.067.456-3.679.678-6.863.161.089.33.16.508.216a9.579 9.579 0 0 0 4.856 7.614z"/></g></g></svg>