<?xml version="1.0" encoding="UTF-8" ?>
<!DOCTYPE svg PUBLIC "-//W3C//DTD SVG 1.1//EN" "http://www.w3.org/Graphics/SVG/1.1/DTD/svg11.dtd">
<svg width="16pt" height="16pt" viewBox="0 0 16 16" version="1.1" xmlns="http://www.w3.org/2000/svg">
<g id="#ef7618f5">
<path fill="#ef7618" opacity="0.96" d=" M 5.39 0.00 L 7.59 0.00 C 12.12 0.62 14.71 6.29 12.16 10.11 C 13.41 11.45 14.79 12.68 16.00 14.07 L 16.00 16.00 L 13.98 16.00 C 12.71 14.80 11.54 13.49 10.28 12.27 C 6.37 14.41 1.22 12.48 0.00 8.13 L 0.00 5.09 C 0.89 2.64 2.77 0.56 5.39 0.00 M 5.37 2.47 C 2.45 3.20 1.21 7.35 3.46 9.45 C 5.38 12.03 9.70 10.88 10.63 7.98 C 11.91 4.91 8.51 1.33 5.37 2.47 Z" />
</g>
</svg>
