<svg xmlns="http://www.w3.org/2000/svg" width="22" height="21" viewBox="0 0 22 21"><defs><linearGradient id="lg45a" x1="0" x2="22.96" y1="21" y2="21" gradientUnits="userSpaceOnUse"><stop offset="0" stop-color="#ffb911"/><stop offset=".49" stop-color="#f14922"/><stop offset="1" stop-color="#ffb911"/></linearGradient><clipPath id="lg45b"><path fill="#fff" d="M22 6.206c0 2.68-1.598 5.78-4.75 9.214-2.425 2.643-5.064 4.689-5.815 5.252L11 21l-.436-.328c-.75-.564-3.389-2.61-5.815-5.252C1.6 11.987 0 8.887 0 6.206A6.213 6.213 0 0 1 6.207 0C8.08 0 9.833.848 11 2.269A6.207 6.207 0 0 1 15.793 0 6.214 6.214 0 0 1 22 6.206zm-1.45 0a4.761 4.761 0 0 0-4.757-4.756 4.76 4.76 0 0 0-4.159 2.455L11 5.05l-.634-1.145a4.76 4.76 0 0 0-4.16-2.455 4.761 4.761 0 0 0-4.755 4.756c0 2.274 1.51 5.12 4.367 8.233C7.813 16.612 9.96 18.37 11 19.18c1.04-.81 3.187-2.566 5.182-4.74 2.857-3.113 4.367-5.96 4.367-8.233z"/></clipPath></defs><g><g><path fill="url(#lg45a)" d="M22 6.206c0 2.68-1.598 5.78-4.75 9.214-2.425 2.643-5.064 4.689-5.815 5.252L11 21l-.436-.328c-.75-.564-3.389-2.61-5.815-5.252C1.6 11.987 0 8.887 0 6.206A6.213 6.213 0 0 1 6.207 0C8.08 0 9.833.848 11 2.269A6.207 6.207 0 0 1 15.793 0 6.214 6.214 0 0 1 22 6.206zm-1.45 0a4.761 4.761 0 0 0-4.757-4.756 4.76 4.76 0 0 0-4.159 2.455L11 5.05l-.634-1.145a4.76 4.76 0 0 0-4.16-2.455 4.761 4.761 0 0 0-4.755 4.756c0 2.274 1.51 5.12 4.367 8.233C7.813 16.612 9.96 18.37 11 19.18c1.04-.81 3.187-2.566 5.182-4.74 2.857-3.113 4.367-5.96 4.367-8.233z"/><path fill="none" stroke="#000" stroke-miterlimit="20" stroke-width="10" d="M22 6.206c0 2.68-1.598 5.78-4.75 9.214-2.425 2.643-5.064 4.689-5.815 5.252L11 21l-.436-.328c-.75-.564-3.389-2.61-5.815-5.252C1.6 11.987 0 8.887 0 6.206A6.213 6.213 0 0 1 6.207 0C8.08 0 9.833.848 11 2.269A6.207 6.207 0 0 1 15.793 0 6.214 6.214 0 0 1 22 6.206zm-1.45 0a4.761 4.761 0 0 0-4.757-4.756 4.76 4.76 0 0 0-4.159 2.455L11 5.05l-.634-1.145a4.76 4.76 0 0 0-4.16-2.455 4.761 4.761 0 0 0-4.755 4.756c0 2.274 1.51 5.12 4.367 8.233C7.813 16.612 9.96 18.37 11 19.18c1.04-.81 3.187-2.566 5.182-4.74 2.857-3.113 4.367-5.96 4.367-8.233z" clip-path="url(&quot;#lg45b&quot;)"/></g></g></svg>