<svg xmlns="http://www.w3.org/2000/svg" width="23" height="18" viewBox="0 0 23 18"><defs><clipPath id="315ua"><path fill="#fff" d="M20.275 12.465c-.2.599-.725.998-1.35.998H8.6c-.6 0-1.175-.374-1.375-.923L3.3 1.994H1c-.55 0-1-.448-1-.997C0 .45.45 0 1 0h2.975c.425 0 .8.274.95.673L9 11.443h9.5l2.125-6.731H8.85c-.55 0-1-.449-1-.997 0-.549.45-.998 1-.998H22c.325 0 .625.175.8.424.2.25.25.599.15.898zM10.25 15.233c.3.299.475.723.475 1.146 0 .424-.175.848-.475 1.147-.3.3-.725.474-1.15.474-.425 0-.85-.174-1.15-.474-.3-.299-.475-.723-.475-1.147 0-.423.175-.847.475-1.146.3-.3.725-.474 1.15-.474.425 0 .85.174 1.15.474zm8.975 0c.3.299.475.723.475 1.146 0 .424-.175.848-.475 1.147-.3.3-.725.474-1.15.474-.425 0-.85-.174-1.15-.474-.3-.299-.475-.723-.475-1.147 0-.423.175-.847.475-1.146.3-.3.725-.474 1.15-.474.425 0 .85.174 1.15.474z"/></clipPath></defs><g><g><path fill="none" stroke="#000" stroke-miterlimit="20" stroke-width="10" d="M20.275 12.465c-.2.599-.725.998-1.35.998H8.6c-.6 0-1.175-.374-1.375-.923L3.3 1.994H1c-.55 0-1-.448-1-.997C0 .45.45 0 1 0h2.975c.425 0 .8.274.95.673L9 11.443h9.5l2.125-6.731H8.85c-.55 0-1-.449-1-.997 0-.549.45-.998 1-.998H22c.325 0 .625.175.8.424.2.25.25.599.15.898zM10.25 15.233c.3.299.475.723.475 1.146 0 .424-.175.848-.475 1.147-.3.3-.725.474-1.15.474-.425 0-.85-.174-1.15-.474-.3-.299-.475-.723-.475-1.147 0-.423.175-.847.475-1.146.3-.3.725-.474 1.15-.474.425 0 .85.174 1.15.474zm8.975 0c.3.299.475.723.475 1.146 0 .424-.175.848-.475 1.147-.3.3-.725.474-1.15.474-.425 0-.85-.174-1.15-.474-.3-.299-.475-.723-.475-1.147 0-.423.175-.847.475-1.146.3-.3.725-.474 1.15-.474.425 0 .85.174 1.15.474z" clip-path="url(&quot;#315ua&quot;)"/></g></g></svg>