<svg xmlns="http://www.w3.org/2000/svg" width="60" height="60" viewBox="0 0 60 60"><defs><linearGradient id="umoua" x1="15.01" x2="26.24" y1="42.81" y2="15" gradientUnits="userSpaceOnUse"><stop offset="0" stop-color="#ffd978"/><stop offset=".5" stop-color="#d52e76"/><stop offset="1" stop-color="#533ce4"/></linearGradient></defs><g><g><path fill="url(#umoua)" d="M7.5 60A7.5 7.5 0 0 1 0 52.5v-45A7.5 7.5 0 0 1 7.5 0h45A7.5 7.5 0 0 1 60 7.5v45a7.5 7.5 0 0 1-7.5 7.5zM57 7.5A4.5 4.5 0 0 0 52.5 3h-45A4.5 4.5 0 0 0 3 7.5v45A4.5 4.5 0 0 0 7.5 57h45a4.5 4.5 0 0 0 4.5-4.5zM33.535 33.531c.977-.975 1.466-2.152 1.466-3.534 0-1.379-.49-2.558-1.466-3.534-.975-.977-2.154-1.464-3.534-1.464s-2.557.488-3.534 1.464c-.976.977-1.464 2.155-1.464 3.534 0 1.381.488 2.559 1.464 3.534.977.978 2.154 1.464 3.534 1.464s2.56-.486 3.534-1.464zm1.914-8.98c1.497 1.497 2.246 3.312 2.246 5.446 0 2.136-.749 3.953-2.246 5.448-1.497 1.497-3.313 2.247-5.448 2.247-2.134 0-3.95-.75-5.448-2.247-1.497-1.496-2.245-3.312-2.245-5.448 0-2.135.748-3.95 2.245-5.447 1.497-1.497 3.314-2.245 5.448-2.245 2.135 0 3.951.749 5.448 2.245zm3.827-3.828c.352.352.528.775.528 1.269 0 .494-.176.917-.528 1.27a1.73 1.73 0 0 1-1.27.526c-.494 0-.916-.175-1.268-.526a1.735 1.735 0 0 1-.527-1.27c0-.494.176-.917.527-1.27a1.726 1.726 0 0 1 1.269-.526c.495 0 .918.174 1.269.526zm-7.78-3.037l-1.495.01-1.494-.01a91.878 91.878 0 0 0-2.06 0c-.467.006-1.096.026-1.883.059-.788.033-1.458.097-2.012.195a7.758 7.758 0 0 0-1.396.361 5.073 5.073 0 0 0-1.718 1.131 5.06 5.06 0 0 0-1.132 1.721 7.705 7.705 0 0 0-.362 1.395 15.33 15.33 0 0 0-.195 2.011 68.252 68.252 0 0 0-.058 1.884 91.894 91.894 0 0 0 0 2.06l.009 1.494-.01 1.496c-.007.904-.007 1.59 0 2.059.007.468.026 1.095.06 1.883.03.788.097 1.459.194 2.011.098.553.218 1.02.362 1.398.26.651.637 1.224 1.132 1.718a5.055 5.055 0 0 0 1.718 1.132c.378.144.843.264 1.396.361.554.098 1.224.163 2.012.196.787.031 1.416.052 1.884.058.468.006 1.155.006 2.06 0l1.493-.01 1.494.01c.905.006 1.592.006 2.06 0 .47-.006 1.096-.027 1.885-.058a15.568 15.568 0 0 0 2.01-.195 7.758 7.758 0 0 0 1.397-.362 5.075 5.075 0 0 0 1.719-1.133 5.077 5.077 0 0 0 1.132-1.717c.143-.378.263-.845.362-1.398.097-.552.162-1.222.195-2.011.031-.788.05-1.415.058-1.883.006-.47.006-1.155 0-2.06a346.91 346.91 0 0 1-.01-1.495l.01-1.494c.006-.903.006-1.591 0-2.06a82.794 82.794 0 0 0-.058-1.884 15.594 15.594 0 0 0-.195-2.011 7.962 7.962 0 0 0-.362-1.395 5.104 5.104 0 0 0-2.851-2.851 7.758 7.758 0 0 0-1.397-.362 15.568 15.568 0 0 0-2.01-.195 68.33 68.33 0 0 0-1.885-.059 91.878 91.878 0 0 0-2.06 0zm13.502 12.311c0 2.982-.033 5.045-.097 6.192-.13 2.706-.938 4.801-2.423 6.287-1.483 1.483-3.579 2.29-6.286 2.419-1.146.066-3.21.099-6.19.099-2.981 0-5.045-.033-6.19-.099-2.709-.129-4.804-.936-6.288-2.42-1.483-1.485-2.292-3.58-2.42-6.286-.067-1.148-.098-3.21-.098-6.192 0-2.98.031-5.043.097-6.189.13-2.708.938-4.805 2.421-6.288 1.484-1.484 3.58-2.29 6.288-2.421 1.145-.065 3.209-.099 6.19-.099 2.98 0 5.044.034 6.19.099 2.707.13 4.803.937 6.286 2.421 1.485 1.483 2.292 3.58 2.423 6.288.064 1.146.097 3.208.097 6.189z"/></g></g></svg>