<svg xmlns="http://www.w3.org/2000/svg" width="26" height="27" viewBox="0 0 26 27"><defs><linearGradient id="350oa" x1="22.52" x2="0" y1="0" y2="13.49" gradientUnits="userSpaceOnUse"><stop offset="0" stop-color="#ffb911"/><stop offset="1" stop-color="#f14922"/></linearGradient></defs><g><g><path fill="url(#350oa)" d="M25.666 14.987l-.402-.559a1.785 1.785 0 0 1-.016-2.052l.391-.564a1.777 1.777 0 0 0-.598-2.566l-.598-.327a1.76 1.76 0 0 1-.886-1.842l.115-.68c.174-1.04-.593-2.002-1.631-2.046l-.68-.028a1.739 1.739 0 0 1-1.588-1.267l-.19-.663a1.717 1.717 0 0 0-2.344-1.123l-.626.271a1.702 1.702 0 0 1-1.968-.443l-.452-.514a1.704 1.704 0 0 0-2.588.022l-.446.52a1.708 1.708 0 0 1-1.963.47l-.63-.265c-.963-.404-2.05.144-2.328 1.161l-.179.67A1.723 1.723 0 0 1 4.493 4.45l-.68.04c-1.038.06-1.788 1.033-1.598 2.073l.125.68a1.763 1.763 0 0 1-.859 1.853l-.593.338a1.77 1.77 0 0 0-.554 2.571l.402.56c.435.607.446 1.432.016 2.051l-.39.564a1.776 1.776 0 0 0 .597 2.566l.598.327a1.763 1.763 0 0 1 .886 1.842l-.114.68c-.174 1.04.593 2.002 1.631 2.046l.68.028a1.74 1.74 0 0 1 1.588 1.267l.19.663a1.717 1.717 0 0 0 2.344 1.123l.625-.27a1.704 1.704 0 0 1 1.968.441l.451.515a1.705 1.705 0 0 0 2.59-.023l.444-.519a1.71 1.71 0 0 1 1.964-.47l.63.265c.963.404 2.05-.144 2.327-1.16l.18-.67a1.725 1.725 0 0 1 1.566-1.29l.68-.038c1.038-.06 1.788-1.035 1.598-2.074l-.125-.68a1.763 1.763 0 0 1 .86-1.853l.592-.338c.908-.508 1.17-1.714.554-2.57z"/></g><g><path fill="#fff" d="M22.361 17.405c-.324.35-.742.525-1.255.525a1.72 1.72 0 0 1-.895-.235 1.587 1.587 0 0 1-.615-.675 2.252 2.252 0 0 1-.22-1.02c0-.387.073-.727.22-1.02.146-.294.351-.519.615-.675.263-.157.561-.235.895-.235.513 0 .931.175 1.255.525.323.35.485.818.485 1.405 0 .586-.162 1.055-.485 1.405zm-.72-2.23a.615.615 0 0 0-.535-.285.62.62 0 0 0-.53.28c-.134.186-.2.463-.2.83 0 .366.066.643.2.83.133.186.31.28.53.28a.615.615 0 0 0 .535-.285c.13-.19.195-.465.195-.825 0-.36-.065-.635-.195-.825zm-5.895 2.675l4.78-7h1.19l-4.78 7zm.61-3.22c-.514 0-.932-.175-1.255-.525-.324-.35-.485-.819-.485-1.405 0-.587.161-1.055.485-1.405.323-.35.741-.525 1.255-.525.513 0 .93.175 1.25.525.32.35.48.818.48 1.405 0 .586-.16 1.055-.48 1.405-.32.35-.737.525-1.25.525zm.535-2.76a.618.618 0 0 0-.535-.28.618.618 0 0 0-.53.285c-.134.19-.2.465-.2.825 0 .36.066.635.2.825.133.19.31.285.53.285a.62.62 0 0 0 .535-.28c.13-.187.195-.464.195-.83 0-.367-.065-.644-.195-.83zm-5.781-.86H9.43V9.45h3.624v8.4H11.11zm-4.396 5.412H5.166v-2.04H3.09v-1.464h2.076v-2.04h1.548v2.04h2.088v1.464H6.714z"/></g></g></svg>