<svg xmlns="http://www.w3.org/2000/svg" width="31" height="6" viewBox="0 0 31 6"><g><g><path fill="#fff" d="M1.572 0H2.71l-.217.826H1.355zm-.353 1.385h1.112L1.138 5.952H0zM10.297.8H7.561l-1.356 5.15H5.068L6.422.802 3.685.826 3.93 0h6.612zM25.553 0l-1.571 5.952h-1.138L24.415 0zm.65 3.765l1.979 2.21H26.88l-2.005-2.21 2.628-2.429h1.301zm2.168 0l2.005 2.21H29.05l-1.978-2.21 2.601-2.429H31zM17.397 2.43c-.271 1.142-.38 1.409-.38 1.409l-.568 2.114h-1.085l-.758-.025-1.626-.024s-.786-.195-.813-.996c-.027-.777.542-1.578 1.057-1.774.217-.097.786-.12 1.382-.12h.081c.705 0 1.382.023 1.382.023s.244-.534.135-.752c-.054-.074-.84-.074-1.598-.074-.732 0-1.436.025-1.463 0l.243-.825h3.28s.975-.073.73 1.044zm-1.518 1.409h-.108c0 .024-.623 0-1.165 0-.271 0-.488 0-.678.024-.568.05-.867 1.215-.406 1.264.217.024.677.024 1.084.024h.921zm4.797-2.478l2.14.025-.243.801H20.73c-.624 0-.921.268-1.111.56-.136.193-.325.728-.406.97a4.493 4.493 0 0 0-.19 1.094c.135.34.623.316.921.316l1.897.024-.217.825L19.185 6c-.406 0-.948-.073-1.246-.559-.244-.412-.136-.996.081-1.7.217-.68.325-1.409 1.003-1.895.515-.388 1.057-.486 1.653-.486zm-8.373.85h-.624c-.623 0-.948.244-1.138.535-.135.194-.298.753-.379.972-.054.145-.082.267-.109.389l-.298.995L9.54 6H8.4l.38-1.482c.162-.656.379-1.336.596-1.895.136-.291.325-.558.623-.777.136-.097.271-.194.434-.242.136-.074.217-.097.27-.122.299-.097.624-.122.922-.122l.867.025z"/></g></g></svg>