<?xml version="1.0" standalone="no"?>
<!DOCTYPE svg PUBLIC "-//W3C//DTD SVG 20010904//EN"
 "http://www.w3.org/TR/2001/REC-SVG-20010904/DTD/svg10.dtd">
<svg version="1.0" xmlns="http://www.w3.org/2000/svg"
 width="165.000000pt" height="165.000000pt" viewBox="0 0 165.000000 165.000000"
 preserveAspectRatio="xMidYMid meet">

<g transform="translate(0.000000,165.000000) scale(0.100000,-0.100000)"
fill="#000000" stroke="none">
<path d="M1170 1555 c7 -8 9 -15 5 -15 -4 0 -2 -6 4 -13 6 -8 8 -16 5 -19 -3
-3 18 -20 45 -36 28 -17 69 -48 92 -69 l42 -38 -59 -5 c-45 -4 -60 -9 -62 -22
-6 -30 38 -41 132 -33 l86 7 0 104 c0 84 -3 106 -15 110 -26 10 -45 -16 -45
-62 0 -24 -2 -44 -5 -44 -3 0 -29 19 -58 43 -51 42 -156 107 -172 107 -4 0 -2
-7 5 -15z"/>
<path d="M1544 1106 c-3 -8 1 -37 10 -63 57 -172 37 -400 -49 -561 -28 -54
-32 -68 -24 -90 6 -15 10 -29 11 -32 0 -15 8 -3 46 63 84 147 119 315 102 481
-13 128 -39 210 -68 214 -13 2 -25 -3 -28 -12z"/>
</g>
</svg>
