<svg xmlns="http://www.w3.org/2000/svg" width="18" height="19" viewBox="0 0 18 19"><defs><linearGradient id="1lzva" x1="0" x2="17.95" y1="18.2" y2="18.2" gradientUnits="userSpaceOnUse"><stop offset="0" stop-color="#ffb911"/><stop offset=".49" stop-color="#f14922"/><stop offset="1" stop-color="#ffb911"/></linearGradient></defs><g><g><path fill="url(#1lzva)" d="M14.46 17.44c-.02.42-.38.76-.8.76H3.52c-.42 0-.78-.34-.8-.76L2.1 5.88c-.02-.44.32-.82.76-.84.44-.02.82.32.84.76l.58 10.8h8.62l.58-10.8c.02-.44.4-.78.84-.76.44.02.78.4.76.84zM17.2 3.2c0 .44-.36.8-.8.8H.8C.36 4 0 3.64 0 3.2c0-.44.36-.8.8-.8h4.4V.6c0-.38.26-.6.64-.6h5.52c.38 0 .64.22.64.6v1.8h4.4c.44 0 .8.36.8.8zM6.6 2.4h4v-1h-4zm-.36 12.28l-.2-8.66c-.02-.4.3-.72.68-.72.4 0 .72.32.72.7l.2 8.64c0 .38-.3.76-.7.76-.38 0-.7-.34-.7-.72zm4 .72c-.4 0-.72-.34-.7-.74l.2-8.64a.71.71 0 0 1 .72-.68c.38 0 .68.34.68.72l-.2 8.64c0 .38-.32.7-.7.7-.02 0-.02 0 0 0z"/></g></g></svg>