<svg xmlns="http://www.w3.org/2000/svg" width="30" height="25" viewBox="0 0 30 25"><g><g><path fill="#fff" d="M29.216 13.029a2.64 2.64 0 0 1 .749 1.834c0 .98-.548 1.841-1.368 2.319.252.405.397.878.397 1.382 0 .98-.548 1.841-1.368 2.319.252.406.397.878.397 1.382 0 1.498-1.28 2.718-2.854 2.718h-2.878c-.697 0-1.362.006-2.005.012-.581.005-1.146.01-1.699.01-3.236 0-6.053-.175-9.296-1.517-.469.892-1.437 1.506-2.553 1.506H.91c-.502 0-.91-.388-.91-.867V9.322c0-.479.408-.867.91-.867h7.771c.503 0 .91.388.91.867v.459c2.999-1.389 7.482-3.673 7.867-8.105C17.539.746 18.4 0 19.384 0l.029.001a3.92 3.92 0 0 1 2.681 1.092 3.557 3.557 0 0 1 1.107 2.572v.292c0 1.801-.426 3.105-1.227 4.486h5.173c1.573 0 2.853 1.22 2.853 2.718a2.64 2.64 0 0 1-.784 1.868zM7.77 10.189H1.821v13.07h2.064v-2.834c0-.479.408-.867.911-.867.502 0 .91.388.91.867v2.834h1.032c.569 0 1.032-.441 1.032-.983zm17.434 3.69c-.503 0-.91-.388-.91-.867s.407-.868.91-.868h1.943c.569 0 1.032-.441 1.032-.983s-.463-.983-1.032-.983h-8.742c-.502 0-.91-.388-.91-.867s.408-.868.91-.868h1.449c1.032-1.542 1.526-2.683 1.526-4.486v-.291c0-1.048-.895-1.914-1.995-1.931h-.001c-.049 0-.108.054-.111.084-.215 2.479-1.482 4.672-3.764 6.518-1.864 1.508-4.032 2.504-5.615 3.231l-.291.134V21.72c3.625 1.603 6.607 1.576 10.666 1.54.647-.006 1.316-.012 2.022-.012h2.878c.57 0 1.032-.441 1.032-.983s-.462-.983-1.032-.983c-.502 0-.91-.389-.91-.868s.408-.867.91-.867h.972c.569 0 1.032-.441 1.032-.983 0-.543-.463-.984-1.032-.984h-.937c-.503 0-.91-.388-.91-.867s.407-.868.91-.868h1.908c.569 0 1.032-.441 1.032-.983s-.463-.983-1.032-.983z"/></g></g></svg>