<svg xmlns="http://www.w3.org/2000/svg" width="30" height="25" viewBox="0 0 30 25"><g><g><path fill="#c1c1cc" d="M30 13.844c0 1.498-1.28 2.718-2.853 2.718h-5.173c.801 1.381 1.227 2.685 1.227 4.486v.292c0 .968-.393 1.882-1.107 2.572a3.92 3.92 0 0 1-2.681 1.092l-.029.001c-.984 0-1.845-.746-1.926-1.676-.385-4.432-4.868-6.716-7.867-8.105v.459c0 .479-.407.867-.91.867H.91c-.502 0-.91-.388-.91-.867V.878C0 .399.408.011.91.011h5.828c1.116 0 2.084.614 2.553 1.506C12.534.175 15.351 0 18.587 0c.553 0 1.118.005 1.699.01.643.006 1.308.012 2.005.012h2.878c1.574 0 2.854 1.22 2.854 2.718 0 .504-.145.976-.397 1.382.82.478 1.368 1.339 1.368 2.319 0 .504-.145.977-.397 1.382.82.478 1.368 1.339 1.368 2.319a2.64 2.64 0 0 1-.749 1.834A2.64 2.64 0 0 1 30 13.844zM7.77 2.729c0-.542-.463-.983-1.032-.983H5.706V4.58c0 .479-.408.867-.91.867-.503 0-.911-.388-.911-.867V1.746H1.821v13.07H7.77zm19.342 8.397c.569 0 1.032-.441 1.032-.983s-.463-.983-1.032-.983h-1.908c-.503 0-.91-.389-.91-.868s.407-.867.91-.867h.937c.569 0 1.032-.441 1.032-.984 0-.542-.463-.983-1.032-.983h-.972c-.502 0-.91-.388-.91-.867s.408-.868.91-.868c.57 0 1.032-.441 1.032-.983s-.462-.983-1.032-.983h-2.878c-.706 0-1.375-.006-2.022-.012-4.059-.036-7.041-.063-10.666 1.54v10.018l.291.134c1.583.727 3.751 1.723 5.615 3.231 2.282 1.846 3.549 4.039 3.764 6.518.003.03.062.084.111.084h.001c1.1-.017 1.995-.883 1.995-1.931v-.291c0-1.803-.494-2.944-1.526-4.486h-1.449c-.502 0-.91-.389-.91-.868s.408-.867.91-.867h8.742c.569 0 1.032-.441 1.032-.983s-.463-.983-1.032-.983h-1.943c-.503 0-.91-.389-.91-.868s.407-.867.91-.867z"/></g></g></svg>